<svg width="32" height="28" viewBox="0 0 32 28" xmlns="http://www.w3.org/2000/svg">
    <g fill="#61DAFB" fill-rule="nonzero">
        <path d="M31.47 14.003c0-2.083-2.61-4.057-6.613-5.28.924-4.077.513-7.32-1.296-8.358-.417-.243-.904-.359-1.437-.359v1.43c.295 0 .533.057.732.166.872.5 1.25 2.404.955 4.852-.07.602-.186 1.237-.327 1.884a31.117 31.117 0 0 0-4.073-.699 31.255 31.255 0 0 0-2.669-3.204c2.091-1.942 4.054-3.006 5.389-3.006V0c-1.764 0-4.074 1.256-6.409 3.435C13.387 1.27 11.078.025 9.314.025v1.43c1.328 0 3.297 1.057 5.388 2.986a30.277 30.277 0 0 0-2.649 3.198c-1.45.154-2.822.391-4.08.705a19.316 19.316 0 0 1-.333-1.858c-.302-2.448.07-4.352.936-4.858.193-.116.443-.167.738-.167V.032c-.539 0-1.026.115-1.45.359-1.802 1.038-2.206 4.275-1.276 8.338C2.598 9.959 0 11.927 0 14.003c0 2.083 2.61 4.057 6.614 5.281-.924 4.076-.514 7.319 1.295 8.357.417.244.905.359 1.444.359 1.764 0 4.073-1.256 6.408-3.435 2.335 2.166 4.644 3.41 6.408 3.41.539 0 1.026-.116 1.45-.36 1.802-1.038 2.207-4.274 1.276-8.337 3.977-1.224 6.575-3.198 6.575-5.275zM23.12 9.73a28.833 28.833 0 0 1-.867 2.531 30.305 30.305 0 0 0-.84-1.538 34.726 34.726 0 0 0-.924-1.5c.911.135 1.79.301 2.63.507zm-2.938 6.825c-.5.865-1.014 1.685-1.546 2.448a33.43 33.43 0 0 1-5.786.006 33.393 33.393 0 0 1-2.887-4.986 34.128 34.128 0 0 1 2.874-5.005 33.407 33.407 0 0 1 5.786-.006 35.29 35.29 0 0 1 1.552 2.435c.488.84.93 1.692 1.334 2.55a35.856 35.856 0 0 1-1.327 2.558zm2.071-.833c.337.835.633 1.686.886 2.55-.84.206-1.726.379-2.643.513.314-.493.628-1 .924-1.519.295-.512.57-1.032.833-1.544zm-6.504 6.838a26.451 26.451 0 0 1-1.783-2.05 39.72 39.72 0 0 0 1.764.044c.603 0 1.2-.013 1.783-.045-.55.715-1.14 1.4-1.764 2.051zm-4.773-3.775c-.91-.134-1.79-.301-2.63-.506.238-.827.533-1.68.866-2.532.264.513.54 1.026.84 1.538.302.513.61 1.013.924 1.5zm4.741-13.337a26.418 26.418 0 0 1 1.783 2.051 39.742 39.742 0 0 0-1.764-.045c-.603 0-1.2.013-1.783.045.55-.715 1.14-1.4 1.764-2.05zm-4.747 3.775a35.461 35.461 0 0 0-1.758 3.057 27.423 27.423 0 0 1-.885-2.55c.84-.2 1.726-.372 2.643-.507zm-5.805 8.024c-2.271-.968-3.74-2.237-3.74-3.243 0-1.006 1.469-2.281 3.74-3.243a19.76 19.76 0 0 1 1.777-.647 30.766 30.766 0 0 0 1.443 3.903A30.325 30.325 0 0 0 6.96 17.9a19.522 19.522 0 0 1-1.796-.654zm3.45 9.158c-.871-.5-1.25-2.403-.955-4.851.07-.603.186-1.237.327-1.884a31.1 31.1 0 0 0 4.074.698 31.262 31.262 0 0 0 2.668 3.205c-2.091 1.941-4.054 3.005-5.388 3.005-.289-.006-.533-.064-.725-.173zm15.217-4.883c.301 2.448-.071 4.351-.937 4.858-.192.115-.443.166-.738.166-1.328 0-3.297-1.057-5.388-2.986a30.269 30.269 0 0 0 2.65-3.198c1.449-.154 2.822-.391 4.079-.705.148.647.263 1.269.334 1.865zm2.47-4.275c-.552.237-1.156.449-1.778.647a30.766 30.766 0 0 0-1.443-3.903 30.304 30.304 0 0 0 1.424-3.883c.635.198 1.238.416 1.803.653 2.27.968 3.74 2.237 3.74 3.243-.007 1.006-1.476 2.282-3.747 3.243z"/>
        <path d="M15.716 16.912a2.932 2.932 0 0 0 2.928-2.935 2.932 2.932 0 0 0-2.928-2.935 2.931 2.931 0 0 0-2.928 2.935 2.932 2.932 0 0 0 2.928 2.935z"/>
    </g>
</svg>
